<?xml version="1.0" encoding="UTF-8" standalone="no"?>
<!-- Created with Inkscape (http://www.inkscape.org/) -->

<svg
   width="16"
   height="16"
   viewBox="0 0 4.2333332 4.2333333"
   version="1.1"
   id="svg1"
   xml:space="preserve"
   inkscape:version="1.4.4 (dcaf3e7, 2026-05-05)"
   sodipodi:docname="attack_component.svg"
   xmlns:inkscape="http://www.inkscape.org/namespaces/inkscape"
   xmlns:sodipodi="http://sodipodi.sourceforge.net/DTD/sodipodi-0.dtd"
   xmlns="http://www.w3.org/2000/svg"
   xmlns:svg="http://www.w3.org/2000/svg"><sodipodi:namedview
     id="namedview1"
     pagecolor="#ffffff"
     bordercolor="#000000"
     borderopacity="0.25"
     inkscape:showpageshadow="2"
     inkscape:pageopacity="0.0"
     inkscape:pagecheckerboard="0"
     inkscape:deskcolor="#d1d1d1"
     inkscape:document-units="px"
     showgrid="true"
     inkscape:zoom="90.509668"
     inkscape:cx="10.722611"
     inkscape:cy="7.3859513"
     inkscape:window-width="2560"
     inkscape:window-height="1494"
     inkscape:window-x="-11"
     inkscape:window-y="-11"
     inkscape:window-maximized="1"
     inkscape:current-layer="layer1"><inkscape:grid
       id="grid1"
       units="px"
       originx="0"
       originy="0"
       spacingx="0.26458332"
       spacingy="0.26458333"
       empcolor="#0099e5"
       empopacity="0.30196078"
       color="#0099e5"
       opacity="0.14901961"
       empspacing="4"
       enabled="true"
       visible="true" /></sodipodi:namedview><defs
     id="defs1" /><g
     inkscape:label="Layer 1"
     inkscape:groupmode="layer"
     id="layer1"><path
       fill="#8da5f3"
       d="M 1.3229166,0.26458337 A 1.0583333,1.0583333 0 0 0 0.26458336,1.3229166 v 1.5875 A 1.0583333,1.0583333 0 0 0 1.3229166,3.9687499 h 1.5875 A 1.0583333,1.0583333 0 0 0 3.9687499,2.9104166 v -1.5875 A 1.0583333,1.0583333 0 0 0 2.9104166,0.26458337 Z M 0.79374996,1.8520833 a 0.26458333,0.26458333 0 0 1 0.52916664,0 V 2.38125 a 0.26458333,0.26458333 0 0 1 -0.52916664,0 z M 3.4395833,2.38125 a 0.26458335,0.26458335 0 0 1 -0.5291667,0 V 1.8520833 a 0.26458335,0.26458335 0 0 1 0.5291667,0 z m -0.574675,1.0128249 a 1.0583333,1.0583333 0 0 1 -1.4964833,0 0.26458333,0.26458333 0 0 1 0.3741208,-0.3741208 0.52916666,0.52916666 0 0 0 0.7482417,0 0.26458333,0.26458333 0 0 1 0.3741208,0.3741208 z"
       id="path1"
       style="display:none;fill:#8da5f3;fill-opacity:0.280899;stroke-width:0.264583" /><path
       d="M 1.9905762,0.68708983 2.1145996,0.85824217 2.2386231,0.68708983 C 2.4453288,0.40100911 2.7777116,0.23151039 3.130765,0.23151039 c 0.6077148,0 1.1005012,0.49278647 1.1005012,1.27124031 0,0.7784537 -1.1567252,1.8558039 -1.7603059,2.3163443 C 2.3684343,3.896816 2.2427572,4.0018229 2.1145996,4.0018229 1.9864421,4.0018229 1.8599382,3.8976432 1.758239,3.819095 1.1546582,3.3585546 0.00206711,2.3328808 0.00206711,1.5544271 c 0,-0.77845383 0.48865234,-1.32291671 1.09636719,-1.32291671 0.3530534,0 0.6854362,0.16949872 0.8921419,0.45557944 z"
       id="path1-5"
       style="display:none;fill:#e0e0e0;fill-opacity:0.550562;stroke:none;stroke-width:0.00826823;stroke-opacity:1"
       sodipodi:nodetypes="cccsccsccsc" /><path
       style="fill:#e0e0e0;fill-opacity:1;stroke-width:0.264583"
       d="M 0.50838699,3.3524608 C -0.01748281,3.8259769 0.40528738,4.2487475 0.87880366,3.7228773 L 1.5213541,3.1088541 2.3812499,3.9687497 H 2.6458332 V 3.7041664 L 1.8520833,2.9104165 3.7041665,1.3229166 3.96875,0.26458332 2.9104165,0.52916663 1.3229166,2.3812498 0.52916665,1.5874999 H 0.26458332 V 1.8520832 L 1.1244791,2.7119791 Z"
       id="path2"
       sodipodi:nodetypes="cccccccccccccccc" /></g></svg>
