<?xml version="1.0" encoding="UTF-8" standalone="no"?>
<!-- Created with Inkscape (http://www.inkscape.org/) -->

<svg
   width="16"
   height="16"
   viewBox="0 0 4.2333332 4.2333333"
   version="1.1"
   id="svg1"
   xml:space="preserve"
   sodipodi:docname="defense.svg"
   inkscape:version="1.4.4 (dcaf3e7, 2026-05-05)"
   xmlns:inkscape="http://www.inkscape.org/namespaces/inkscape"
   xmlns:sodipodi="http://sodipodi.sourceforge.net/DTD/sodipodi-0.dtd"
   xmlns="http://www.w3.org/2000/svg"
   xmlns:svg="http://www.w3.org/2000/svg"><sodipodi:namedview
     id="namedview1"
     pagecolor="#ffffff"
     bordercolor="#000000"
     borderopacity="0.25"
     inkscape:showpageshadow="2"
     inkscape:pageopacity="0.0"
     inkscape:pagecheckerboard="0"
     inkscape:deskcolor="#d1d1d1"
     inkscape:document-units="px"
     showgrid="true"
     inkscape:zoom="90.509668"
     inkscape:cx="8.4687086"
     inkscape:cy="7.9825726"
     inkscape:window-width="2560"
     inkscape:window-height="1494"
     inkscape:window-x="-11"
     inkscape:window-y="-11"
     inkscape:window-maximized="1"
     inkscape:current-layer="layer1"><inkscape:grid
       id="grid1"
       units="px"
       originx="0"
       originy="0"
       spacingx="0.26458332"
       spacingy="0.26458333"
       empcolor="#0099e5"
       empopacity="0.30196078"
       color="#0099e5"
       opacity="0.14901961"
       empspacing="4"
       enabled="true"
       visible="true" /></sodipodi:namedview><defs
     id="defs1" /><g
     inkscape:label="Layer 1"
     inkscape:groupmode="layer"
     id="layer1"><path
       id="path1"
       style="fill:#e0e0e0;fill-opacity:1;stroke-width:0.00831368"
       d="M 1.3229166 0.26458333 C 1.3229166 0.26458333 1.0583333 0.79375003 0.79374998 0.92604165 C 0.52916665 1.0583333 0.26458333 1.0583333 0.26458333 1.0583333 C 0.26458333 1.0583333 0.52916672 2.9067817 1.5875 3.7041666 C 1.8520834 3.8569239 2.1166666 3.9687499 2.1166666 3.9687499 C 2.1166666 3.9687499 2.38125 3.8569238 2.6458333 3.7041666 C 3.7041666 2.9104167 3.9687499 1.0583333 3.9687499 1.0583333 C 3.9687499 1.0583333 3.7041666 1.0583333 3.4395833 0.92604165 C 3.175 0.79375003 2.9104166 0.26458333 2.9104166 0.26458333 C 2.9104166 0.26458333 2.6458332 0.52916666 2.1166666 0.52916666 C 1.5874999 0.52916666 1.3229166 0.26458333 1.3229166 0.26458333 z M 1.4815633 0.63510334 C 1.4815633 0.63510334 1.6933332 0.84645994 2.1166666 0.84645994 C 2.5399999 0.84645994 2.75177 0.63510334 2.75177 0.63510334 C 2.75177 0.63510334 2.9633332 1.0584367 3.1749999 1.16427 C 3.3866666 1.2701033 3.5982299 1.2702067 3.5982299 1.2702067 C 3.5982299 1.2702067 3.3865633 2.7518734 2.5398966 3.3868733 C 2.32823 3.5090791 2.1166666 3.5982299 2.1166666 3.5982299 C 2.1166666 3.5982299 1.9051034 3.509079 1.6934367 3.3868733 C 0.84677 2.7489654 0.63510334 1.2702067 0.63510334 1.2702067 C 0.63510334 1.2702067 0.84666657 1.2701033 1.0583333 1.16427 C 1.2699999 1.0584367 1.4815633 0.63510334 1.4815633 0.63510334 z " /><path
       d="m 2.570238,1.0583333 c 0,0 0.1511905,0.3023809 0.302381,0.3779762 0.1511904,0.075595 0.3023808,0.075595 0.3023808,0.075595 0,0 -0.1511904,1.0583332 -0.7559522,1.5119046 -0.1511905,0.08729 -0.302381,0.1511905 -0.302381,0.1511905 0,0 -0.1511904,-0.063901 -0.3023809,-0.1511905 C 1.2095238,2.5681608 1.0583333,1.5119047 1.0583333,1.5119047 c 0,0 0.1511905,0 0.3023809,-0.075595 0.1511905,-0.075595 0.302381,-0.3779762 0.302381,-0.3779762 0,0 0.1511905,0.1511904 0.4535714,0.1511904 0.302381,0 0.4535714,-0.1511904 0.4535714,-0.1511906 z"
       id="path1-1"
       style="fill:#e0e0e0;fill-opacity:1;stroke-width:0.00475067"
       sodipodi:nodetypes="czccccczczc" /></g></svg>
