<?xml version="1.0" encoding="UTF-8" standalone="no"?>
<!-- Created with Inkscape (http://www.inkscape.org/) -->

<svg
   width="16"
   height="16"
   viewBox="0 0 4.2333332 4.2333333"
   version="1.1"
   id="svg1"
   xml:space="preserve"
   sodipodi:docname="ranged_weapon.svg"
   inkscape:version="1.4.4 (dcaf3e7, 2026-05-05)"
   xmlns:inkscape="http://www.inkscape.org/namespaces/inkscape"
   xmlns:sodipodi="http://sodipodi.sourceforge.net/DTD/sodipodi-0.dtd"
   xmlns="http://www.w3.org/2000/svg"
   xmlns:svg="http://www.w3.org/2000/svg"><sodipodi:namedview
     id="namedview1"
     pagecolor="#ffffff"
     bordercolor="#000000"
     borderopacity="0.25"
     inkscape:showpageshadow="2"
     inkscape:pageopacity="0.0"
     inkscape:pagecheckerboard="0"
     inkscape:deskcolor="#d1d1d1"
     inkscape:document-units="px"
     showgrid="true"
     inkscape:zoom="64"
     inkscape:cx="9.6640625"
     inkscape:cy="8.1171875"
     inkscape:window-width="2560"
     inkscape:window-height="1494"
     inkscape:window-x="-11"
     inkscape:window-y="-11"
     inkscape:window-maximized="1"
     inkscape:current-layer="layer1"><inkscape:grid
       id="grid1"
       units="px"
       originx="0"
       originy="0"
       spacingx="0.26458332"
       spacingy="0.26458333"
       empcolor="#0099e5"
       empopacity="0.30196078"
       color="#0099e5"
       opacity="0.14901961"
       empspacing="4"
       enabled="true"
       visible="true" /></sodipodi:namedview><defs
     id="defs1" /><g
     inkscape:label="Layer 1"
     inkscape:groupmode="layer"
     id="layer1"><path
       id="path3"
       style="fill:#8da5f3;fill-opacity:1;stroke-width:0.264583"
       d="M 1.5875,0.52916666 C 1.1127634,0.54311745 0.26458333,1.0583333 0.26458333,1.0583333 L 0.39687499,1.3229166 0.66145832,1.190625 3.0427083,3.5718749 2.9104166,3.8364583 3.1749999,3.9687499 c 0,0 0.5152157,-0.84818 0.5291667,-1.3229166 C 3.720551,2.0882833 3.5694174,1.4527508 3.1749999,1.0583333 2.7805823,0.66391575 2.14505,0.51278226 1.5875,0.52916666 Z M 0.89958332,1.0583333 c 0,0 1.09775968,-0.64849017 2.01083318,0.2645833 0.9130735,0.9130735 0.2645834,1.984375 0.2645834,1.984375 z"
       sodipodi:nodetypes="sccccccsssczcc"
       inkscape:label="bow" /><path
       style="display:inline;fill:#8da5f3;fill-opacity:1;stroke-width:0.264583"
       d="M 3.96875,0.26458332 3.1667317,0.5279735 2.9104166,1.0583333 1.0583333,2.9765624 0.79374996,3.0427083 0.26458332,3.5718749 0.79374996,3.439583 0.66145832,3.9687499 1.190625,3.4395833 1.2567708,3.1749997 3.175,1.3229166 3.7041665,1.0583333 Z"
       id="path4"
       sodipodi:nodetypes="ccccccccccccc"
       inkscape:label="arrow" /></g></svg>
